<svg width="128" height="128" viewBox="0 0 128 128" fill="none" xmlns="http://www.w3.org/2000/svg">
<path d="M114.187 60.8533L67.0934 13.76C65.12 11.7867 62.4 10.6667 59.5734 10.6667H21.3334C15.4667 10.6667 10.6667 15.4667 10.6667 21.3333V59.5733C10.6667 62.4 11.7867 65.12 13.8134 67.0933L60.9067 114.187C65.0667 118.347 71.84 118.347 76 114.187L114.24 75.9467C118.4 71.7867 118.4 65.0667 114.187 60.8533ZM34.6667 42.6667C30.24 42.6667 26.6667 39.0933 26.6667 34.6667C26.6667 30.24 30.24 26.6667 34.6667 26.6667C39.0934 26.6667 42.6667 30.24 42.6667 34.6667C42.6667 39.0933 39.0934 42.6667 34.6667 42.6667Z" fill="black"/>
</svg>
