<svg width="128" height="128" viewBox="0 0 128 128" fill="none" xmlns="http://www.w3.org/2000/svg">
<path d="M128 122.722C128 121.137 127.089 119.793 125.809 119.044C126.261 118.291 126.503 117.431 126.509 116.553C126.512 115.263 126.004 114.025 125.095 113.111C124.186 112.196 122.951 111.68 121.662 111.676C121.562 111.676 121.455 111.706 121.353 111.718V111.115C121.353 109.739 120.239 108.619 118.869 108.619C118.522 108.619 118.202 108.71 117.903 108.845V107.081H121.705V95.6715H118.95V86.1653H121.705V74.7541H118.95V65.2459H121.705V53.8347H118.95V44.3264H121.705V32.9173H118.95V23.4091H121.705V6.29547H96.5248V0H29.3781V8.19627H22.8203V6.29547H3.80373V101.376H0V107.081H3.80373V128H128V125.903H126.598C127.452 125.111 128 123.983 128 122.722ZM79.8677 23.4112H89.376V32.9195H79.8677V23.4112ZM79.8677 44.3264H89.376V53.8347H79.8677V44.3264ZM79.8677 65.2459H89.376V74.7541H79.8677V65.2459ZM79.8677 86.1653H89.376V95.6736H79.8677V86.1653V86.1653ZM60.8512 23.4112H70.3595V32.9195H60.8512V23.4112ZM60.8512 44.3264H70.3595V53.8347H60.8512V44.3264ZM60.8512 65.2459H70.3595V74.7541H60.8512V65.2459ZM60.8512 86.1653H70.3595V95.6736H60.8512V86.1653V86.1653ZM30.8821 125.903H25.1776V110.886H30.8821V125.903ZM38.4875 125.903H32.7829V110.886H38.4875V125.903ZM51.3429 125.903H40.3883V108.983H23.2747V125.903H7.60533V107.083H51.3429V125.903V125.903ZM51.3429 86.1653V101.378H22.8181V83.3131H51.3429V86.1653ZM51.3429 65.2459V77.6064H22.8181V62.3936H51.3429V65.2459ZM51.3429 44.3264V56.6869H22.8181V41.4741H51.3429V44.3264ZM51.3429 23.4112V35.7717H22.8181V20.5589H51.3429V23.4112V23.4112ZM51.3429 14.8523H22.8181V10.0971H51.3429V14.8523V14.8523ZM60.8512 125.903H54.5579V123.806H60.8512V107.083H70.3595V123.806H79.8677V107.083H89.376V123.806H98.08C98.5109 124.819 99.3792 125.583 100.446 125.903H60.8512V125.903ZM98.8864 113.628V107.083H108.395V109.999C108.164 109.952 107.945 109.875 107.697 109.875C106.992 109.878 106.303 110.082 105.709 110.462C105.115 110.843 104.643 111.384 104.346 112.023C103.83 111.843 103.289 111.747 102.743 111.74C101.175 111.74 99.7931 112.486 98.8864 113.628V113.628ZM101.758 122.347C101.073 122.347 100.525 123.036 100.525 122.347C100.525 122.018 100.655 121.703 100.888 121.47C101.12 121.238 101.436 121.107 101.764 121.107C102.093 121.107 102.408 121.238 102.641 121.47C102.873 121.703 103.004 122.018 103.004 122.347C103.004 123.036 102.453 122.347 101.758 122.347V122.347ZM103.089 115.631C101.715 115.631 100.602 117.815 100.602 116.422C100.602 115.762 100.864 115.128 101.331 114.66C101.799 114.193 102.432 113.931 103.093 113.931C103.754 113.931 104.388 114.193 104.855 114.66C105.323 115.128 105.585 115.762 105.585 116.422C105.585 117.818 104.48 115.631 103.089 115.631ZM108.495 122.338C107.125 122.338 106.012 124.256 106.012 122.874C106.013 122.215 106.275 121.583 106.74 121.116C107.205 120.649 107.836 120.385 108.495 120.382C108.821 120.382 109.144 120.447 109.445 120.573C109.745 120.699 110.019 120.883 110.248 121.114C110.478 121.346 110.659 121.62 110.782 121.922C110.905 122.224 110.968 122.548 110.965 122.874C110.967 124.256 109.877 122.338 108.495 122.338ZM111.618 112.369C111.618 111.924 111.795 111.497 112.11 111.183C112.424 110.868 112.851 110.691 113.296 110.691C113.741 110.691 114.168 110.868 114.482 111.183C114.797 111.497 114.974 111.924 114.974 112.369C114.974 113.299 114.227 111.9 113.291 111.9C112.365 111.9 111.618 113.297 111.618 112.369ZM114.537 118.528C113.852 118.528 113.303 119.219 113.303 118.528C113.303 117.847 113.852 117.291 114.537 117.291C114.7 117.29 114.862 117.321 115.013 117.382C115.164 117.444 115.301 117.535 115.417 117.65C115.533 117.765 115.625 117.902 115.687 118.053C115.75 118.203 115.782 118.365 115.782 118.528C115.782 119.219 115.238 118.528 114.537 118.528ZM115.804 95.6736H96.7872V86.1653H115.804V95.6736V95.6736ZM115.804 74.7541H96.7872V65.2459H115.804V74.7541ZM115.804 53.8347H96.7872V44.3264H115.804V53.8347ZM115.804 32.9195H96.7872V23.4112H115.804V32.9195ZM117.926 123.017C116.998 123.017 116.254 124.414 116.254 123.486C116.246 123.261 116.283 123.036 116.364 122.826C116.444 122.616 116.567 122.424 116.723 122.262C116.879 122.1 117.067 121.971 117.274 121.883C117.481 121.795 117.704 121.749 117.93 121.749C118.155 121.749 118.378 121.795 118.585 121.883C118.792 121.971 118.98 122.1 119.136 122.262C119.293 122.424 119.415 122.616 119.495 122.826C119.576 123.036 119.613 123.261 119.605 123.486C119.605 124.414 118.865 123.017 117.926 123.017ZM118.359 114.935C117.673 114.935 117.126 115.84 117.126 115.151C117.126 114.447 117.673 113.897 118.359 113.897C119.036 113.897 119.605 114.447 119.605 115.151C119.605 115.84 119.038 114.935 118.359 114.935ZM121.327 118.756C121.327 118.428 121.457 118.113 121.69 117.881C121.922 117.648 122.237 117.518 122.565 117.518C122.894 117.518 123.209 117.648 123.441 117.881C123.673 118.113 123.804 118.428 123.804 118.756C123.804 119.445 123.258 118.554 122.573 118.554C121.877 118.554 121.327 119.445 121.327 118.756ZM123.708 123.196C123.021 123.196 122.458 123.9 122.458 123.196C122.458 122.517 123.021 121.952 123.708 121.952C124.388 121.952 124.941 122.517 124.941 123.196C124.941 123.9 124.39 123.196 123.708 123.196Z" fill="black"/>
</svg>
