<svg id="Capa_1" enable-background="new 0 0 512 512" height="512" viewBox="0 0 512 512" width="512" xmlns="http://www.w3.org/2000/svg"><g><g><path d="m0 57.235v397.53h512v-397.53zm482 30v28.432h-452v-28.432zm-452 337.53v-279.098h452v279.099h-452z"/><path d="m63.257 363.073h177.174v30h-177.174z"/><path d="m289.749 390.898h30v-24.65h98.517v24.65h30l.543-213.228h-159.06zm30-78.184h98.517v23.533h-98.517zm98.882-105.044-.365 61.942v13.102h-98.517v-75.044z"/></g><g><path d="m181.591 303.069h58.84v30h-58.84z"/><path d="m181.591 243.065h58.84v30h-58.84z"/></g><path d="m102.478 224.553h-36.64v.16l.238 107.737s30.838-.118 37.309-.23c26.27-.46 45.336-23.063 45.336-53.744 0-14.364-3.783-27.019-10.94-36.593-8.353-11.175-20.891-17.33-35.303-17.33zm.418 79.67c-2.087.036-5.304.068-8.672.094-.081.001-.161.001-.243.002-.028-8.99-.058-20.042-.058-25.932 0-4.991-.018-16.47-.033-25.834h.051 8.537c16.928 0 18.243 19.841 18.243 25.922 0 12.661-5.512 25.533-17.825 25.748z"/></g></svg>