<svg width="128" height="128" xmlns="http://www.w3.org/2000/svg">
  <path d="M117.333 48V37.3333H106.667V26.6667C106.667 20.8 101.867 16 96 16H21.3334C15.4667 16 10.6667 20.8 10.6667 26.6667V101.333C10.6667 107.2 15.4667 112 21.3334 112H96C101.867 112 106.667 107.2 106.667 101.333V90.6667H117.333V80H106.667V69.3333H117.333V58.6667H106.667V48H117.333ZM96 101.333H21.3334V26.6667H96V101.333ZM32 69.3333H58.6667V90.6667H32V69.3333ZM64 37.3333H85.3334V53.3333H64V37.3333ZM32 37.3333H58.6667V64H32V37.3333ZM64 58.6667H85.3334V90.6667H64V58.6667Z" fill="black"/>
</svg>
