<svg width="126" height="128" viewBox="0 0 126 128" fill="none" xmlns="http://www.w3.org/2000/svg">
<path fill-rule="evenodd" clip-rule="evenodd" d="M59.8747 0.704019C60.8668 0.241585 61.9481 0.00195313 63.0427 0.00195312C64.1373 0.00195313 65.2186 0.241585 66.2107 0.704019L123.917 27.664C124.306 27.8451 124.634 28.1334 124.864 28.495C125.093 28.8566 125.215 29.2764 125.214 29.7048C125.212 30.1331 125.089 30.5522 124.857 30.9126C124.626 31.273 124.296 31.5596 123.907 31.7387L65.7467 58.496C64.897 58.8871 63.9727 59.0896 63.0373 59.0896C62.102 59.0896 61.1777 58.8871 60.328 58.496L2.17334 31.7387C1.78239 31.5613 1.45067 31.2752 1.21766 30.9146C0.984654 30.5541 0.860178 30.1341 0.859055 29.7048C0.857931 29.2755 0.980206 28.8549 1.21132 28.4931C1.44244 28.1313 1.77266 27.8435 2.16267 27.664L59.8693 0.704019H59.8747ZM123.923 62.176C124.312 62.356 124.642 62.6442 124.873 63.0063C125.104 63.3684 125.225 63.7892 125.224 64.2185C125.222 64.6478 125.097 65.0676 124.863 65.4279C124.63 65.7882 124.298 66.0738 123.907 66.2507L65.752 93.008C64.9023 93.3991 63.978 93.6016 63.0427 93.6016C62.1073 93.6016 61.183 93.3991 60.3333 93.008L2.17334 66.2507C1.78239 66.0733 1.45067 65.7872 1.21766 65.4266C0.984654 65.066 0.860178 64.6461 0.859055 64.2168C0.857931 63.7875 0.980206 63.3669 1.21132 63.0051C1.44244 62.6432 1.77266 62.3555 2.16267 62.176L14.0827 56.608C14.9363 56.2092 15.8667 56.0011 16.8089 55.9983C17.7512 55.9956 18.6827 56.1982 19.5387 56.592L60.3333 75.3653C62.0507 76.1547 64.0347 76.1547 65.752 75.3653L106.547 56.592C108.275 55.7974 110.275 55.8027 112.003 56.608L123.923 62.176V62.176ZM123.923 96.8427C124.312 97.0227 124.642 97.3108 124.873 97.673C125.104 98.0351 125.225 98.4558 125.224 98.8852C125.222 99.3145 125.097 99.7343 124.863 100.095C124.63 100.455 124.298 100.74 123.907 100.917L65.752 127.675C64.9023 128.066 63.978 128.268 63.0427 128.268C62.1073 128.268 61.183 128.066 60.3333 127.675L2.17334 100.917C1.78239 100.74 1.45067 100.454 1.21766 100.093C0.984654 99.7327 0.860178 99.3128 0.859055 98.8834C0.857931 98.4541 0.980206 98.0335 1.21132 97.6717C1.44244 97.3099 1.77266 97.0222 2.16267 96.8427L14.0827 91.2747C14.9363 90.8758 15.8667 90.6678 16.8089 90.665C17.7512 90.6623 18.6827 90.8648 19.5387 91.2587L60.3333 110.032C62.0507 110.821 64.0347 110.821 65.752 110.032L106.547 91.2587C108.275 90.464 110.275 90.4694 112.003 91.2747L123.923 96.8427V96.8427Z" fill="black"/>
</svg>
