<svg id="Capa_1" enable-background="new 0 0 512 512" height="512" viewBox="0 0 512 512" width="512" xmlns="http://www.w3.org/2000/svg"><g><path d="m437.019 74.98c-48.352-48.352-112.639-74.98-181.019-74.98s-132.667 26.628-181.019 74.98c-48.353 48.353-74.981 112.64-74.981 181.02 0 68.381 26.628 132.668 74.981 181.02 48.352 48.352 112.639 74.98 181.019 74.98s132.667-26.628 181.019-74.98c48.353-48.352 74.981-112.639 74.981-181.02 0-68.38-26.628-132.667-74.981-181.02zm-21.213 21.213c42.686 42.687 66.194 99.441 66.194 159.807 0 55.635-19.981 108.191-56.525 149.504l-121.135-121.134 91.131-91.131c20.322-20.322 20.322-53.389 0-73.711s-53.389-20.322-73.71 0l-91.131 91.132-124.135-124.134c41.314-36.545 93.87-56.526 149.505-56.526 60.367 0 117.12 23.508 159.806 66.193zm-163.963 135.68 64.347-64.347 31.284 31.285-64.347 64.347zm10.071 52.497-79.276 79.275-32.498 1.213 1.213-32.497 79.275-79.276zm112.344-112.344-5.571 5.571-31.284-31.285 5.571-5.571c8.625-8.624 22.659-8.624 31.284 0 4.178 4.179 6.479 9.733 6.479 15.643s-2.3 11.464-6.479 15.642zm-278.064 243.781c-42.686-42.686-66.194-99.44-66.194-159.807 0-55.042 19.553-107.075 55.359-148.185l124.058 124.058-87.602 87.602-2.858 76.569 76.569-2.859 87.602-87.602 121.059 121.058c-41.111 35.806-93.144 55.359-148.187 55.359-60.367 0-117.12-23.508-159.806-66.193z"/></g></svg>